<?xml version="1.0" encoding="UTF-8"?>
<svg version="1.1" xmlns="http://www.w3.org/2000/svg" width="640" height="640">
<path d="M0 0 C0.99 0 1.98 0 3 0 C4.1015625 2.63151042 5.203125 5.26302083 6.3046875 7.89453125 C6.83015671 9.1498188 6.83015671 9.1498188 7.36624146 10.4304657 C8.51417542 13.17275238 8.51417542 13.17275238 9.66210938 15.91503906 C10.06236328 16.87120117 10.46261719 17.82736328 10.875 18.8125 C23.32910157 48.56396486 23.32910157 48.56396486 24.45639038 51.25694275 C25.19875132 53.03035378 25.94112192 54.80376076 26.6835022 56.5771637 C28.52897458 60.98567366 30.37427733 65.39425449 32.21923828 69.80297852 C35.70398254 78.12964758 39.19031954 86.45563884 42.68225098 94.77929688 C44.31336449 98.66762735 45.94357949 102.55633426 47.57373047 106.44506836 C48.34379171 108.28135596 49.11428289 110.11746333 49.88525391 111.95336914 C53.4694326 120.48860122 57.04362742 129.02776346 60.515625 137.609375 C60.99805664 138.80014648 61.48048828 139.99091797 61.97753906 141.21777344 C63 144 63 144 63 146 C96.5986737 132.94500987 130.18355225 119.85507091 163.74337769 106.70050049 C165.96786668 105.8285636 168.19241341 104.95677398 170.41702271 104.08514404 C172.5339065 103.25562806 174.6506649 102.42579199 176.76728821 101.59561157 C178.77577911 100.80802752 180.78462983 100.02136035 182.79386902 99.23568726 C187.09172036 97.55180617 191.38078493 95.85403268 195.64355469 94.08300781 C196.33536835 93.79761139 197.02718201 93.51221497 197.73995972 93.21817017 C199.51963655 92.48041108 201.29495968 91.73217243 203.06982422 90.98291016 C205.9293474 90.0237 208.0125338 89.78586707 211 90 C207.22039615 100.33699931 203.17595041 110.52123993 198.85400391 120.64279175 C192.08352342 136.51226617 185.50604756 152.45806803 179 168.4375 C178.58055115 169.46711853 178.16110229 170.49673706 177.72894287 171.55755615 C175.6333587 176.70168442 173.53889864 181.84626919 171.4453125 186.99121094 C167.98080567 195.50491314 164.51482797 204.01799278 161.03613281 212.52590942 C160.3545873 214.19442326 159.67421532 215.86341703 158.99511719 217.53292847 C158.06212457 219.82652555 157.12526513 222.11850713 156.1875 224.41015625 C155.92171143 225.06625885 155.65592285 225.72236145 155.38208008 226.39834595 C154.87025405 227.6445844 154.34658371 228.88603349 153.81037903 230.12197876 C153.24095386 231.441599 152.70381612 232.77539275 152.19096375 234.11801147 C150.57606642 237.94901307 149.24362359 240.27672517 145.43286133 242.12304688 C143.99347245 242.68374364 142.54199911 243.21405698 141.08203125 243.71875 C140.29011887 244.01868362 139.49820648 244.31861725 138.68229675 244.62763977 C136.0679967 245.61133498 133.44100471 246.55499307 130.8125 247.5 C128.95526026 248.1919068 127.09915597 248.88686828 125.24414062 249.5847168 C121.39572788 251.02977517 117.54278172 252.46161817 113.68603516 253.88427734 C105.90800392 256.76424351 98.19274692 259.80118777 90.47540283 262.83914185 C86.27957193 264.488993 82.07938665 266.12765444 77.87890625 267.765625 C77.02028992 268.10054459 76.16167358 268.43546417 75.27703857 268.78053284 C68.22048835 271.53033955 61.15577765 274.25878739 54.08984375 276.984375 C51.88083704 277.83742588 49.6718526 278.69053445 47.46289062 279.54370117 C43.2247898 281.1805595 38.98497573 282.8128681 34.74414062 284.44262695 C32.77577801 285.2019536 30.80767223 285.96194644 28.83984375 286.72265625 C27.90103363 287.08470657 26.96222351 287.4467569 25.9949646 287.81977844 C21.67952685 289.50033082 17.40896092 291.23263653 13.19189453 293.14794922 C12.45733536 293.48152939 11.72277618 293.81510956 10.96595764 294.15879822 C9.62436225 294.77737966 8.28832254 295.40823659 6.95970154 296.05421448 C1.93223627 298.39118259 -0.76792351 297.75797103 -5.88432312 296.02053833 C-7.48011955 295.41700027 -7.48011955 295.41700027 -9.1081543 294.80126953 C-10.32964676 294.34143677 -11.55113922 293.881604 -12.80964661 293.40783691 C-14.14786825 292.89957687 -15.486058 292.39123285 -16.82421875 291.8828125 C-18.22759352 291.35282211 -19.63109472 290.82316639 -21.03471375 290.29382324 C-24.80498965 288.87080855 -28.57341899 287.44296358 -32.34148407 286.01410675 C-36.2658935 284.52681126 -40.1918932 283.04372485 -44.11767578 281.56005859 C-51.963889 278.59381156 -59.80800656 275.62205693 -67.65142822 272.6484375 C-71.65184212 271.13180896 -75.65275568 269.61650444 -79.65380859 268.1015625 C-81.97103952 267.22398705 -84.28826001 266.34638404 -86.60546875 265.46875 C-87.70227966 265.05341507 -88.79909058 264.63808014 -89.92913818 264.2101593 C-95.10316704 262.24948625 -100.27466303 260.28258757 -105.44091797 258.30151367 C-107.37852116 257.55892659 -109.31618248 256.81649114 -111.25390625 256.07421875 C-112.63391815 255.54552437 -112.63391815 255.54552437 -114.04180908 255.00614929 C-119.15334625 253.05686396 -124.28075885 251.16712386 -129.43939209 249.34613037 C-132.39936238 248.29961223 -135.35038924 247.22919829 -138.30084229 246.15618896 C-140.22121955 245.47011104 -142.15510083 244.82218805 -144.08935547 244.17626953 C-153.15010043 240.86358516 -153.15010043 240.86358516 -155.75390625 235.9296875 C-156.53239608 233.96466804 -157.27561706 231.98560249 -158 230 C-158.60409306 228.56380854 -159.21765251 227.13157979 -159.83813477 225.70239258 C-162.14630094 220.38309492 -164.38528138 215.03590125 -166.625 209.6875 C-167.46627387 207.68580233 -168.30791492 205.68425895 -169.14990234 203.68286133 C-170.89826074 199.52616122 -172.64504459 195.36880494 -174.390625 191.2109375 C-178.06435779 182.46298061 -181.7540875 173.72178375 -185.44525146 164.98117065 C-186.62279427 162.19272321 -187.79992833 159.40410343 -188.97705078 156.61547852 C-195.84463542 140.35001013 -202.74464017 124.09836603 -209.65625 107.8515625 C-209.95224091 107.1557457 -210.24823181 106.45992889 -210.55319214 105.74302673 C-210.83276764 105.08613358 -211.11234314 104.42924042 -211.40039062 103.75244141 C-211.66505127 103.12718567 -211.92971191 102.50192993 -212.20239258 101.85772705 C-212.74760654 100.58785582 -213.30535689 99.32331326 -213.8737793 98.06365967 C-215.16104282 95.18631903 -216 93.19200489 -216 90 C-211.1982522 90.61928131 -206.94107063 92.00868274 -202.46484375 93.78125 C-201.7312262 94.06611267 -200.99760864 94.35097534 -200.24176025 94.64447021 C-198.6464202 95.2644903 -197.05206352 95.88704529 -195.45858765 96.51184082 C-191.06568862 98.23367049 -186.66505985 99.93558099 -182.265625 101.640625 C-181.34190598 101.99920593 -180.41818695 102.35778687 -179.46647644 102.72723389 C-169.3974337 106.63173757 -159.29387211 110.44341295 -149.1875 114.25 C-145.43471312 115.66488033 -141.68217039 117.08040741 -137.9296875 118.49609375 C-136.50301254 119.03425972 -136.50301254 119.03425972 -135.04751587 119.58329773 C-124.07430133 123.72410865 -113.10808334 127.88333499 -102.14370728 132.04748535 C-99.94557463 132.88221876 -97.74731475 133.71661718 -95.54891968 134.55065918 C-92.47627979 135.71646366 -89.40409282 136.88345381 -86.33203125 138.05078125 C-85.43287994 138.39174332 -84.53372864 138.73270538 -83.60733032 139.08399963 C-82.7505368 139.40988571 -81.89374329 139.73577179 -81.01098633 140.0715332 C-80.18442535 140.38506744 -79.35786438 140.69860168 -78.5062561 141.02163696 C-76.76501856 141.70136097 -75.03400799 142.40763909 -73.31185913 143.1343689 C-72.00252914 143.68503525 -72.00252914 143.68503525 -70.66674805 144.24682617 C-69.8898613 144.58244064 -69.11297455 144.91805511 -68.31254578 145.26383972 C-65.75971479 146.07649078 -63.66277549 146.13212224 -61 146 C-60.63463135 145.08863281 -60.2692627 144.17726562 -59.89282227 143.23828125 C-52.30455362 124.33071455 -44.56911236 105.49583555 -36.5614624 86.76184082 C-31.01849752 73.79230868 -25.57073112 60.78662378 -20.1875 47.75 C-13.58993216 31.77532558 -6.87157489 15.85887682 0 0 Z M1 64 C-2.99531459 72.50184922 -6.75837656 81.05431593 -10.3125 89.75 C-11.34273478 92.26865158 -12.37363067 94.78701422 -13.40625 97.3046875 C-13.81886833 98.31144028 -13.81886833 98.31144028 -14.23982239 99.33853149 C-16.25361223 104.23343982 -18.31774955 109.10541356 -20.40144348 113.97094727 C-21.98907934 117.68184467 -23.56382266 121.39815493 -25.13778687 125.11486816 C-25.91756642 126.94705536 -26.7031886 128.7767675 -27.49478149 130.60388184 C-28.61222425 133.18537594 -29.70843537 135.77499356 -30.80078125 138.3671875 C-31.13972412 139.13588165 -31.47866699 139.90457581 -31.82788086 140.69656372 C-34.44572804 147.00234676 -34.0411062 151.52823665 -31.56396484 157.89526367 C-30.95479361 159.32315694 -30.33659688 160.74722278 -29.7109375 162.16796875 C-29.37539856 162.94910538 -29.03985962 163.730242 -28.69415283 164.53504944 C-27.595362 167.08921788 -26.48523316 169.63828715 -25.375 172.1875 C-23.82476509 175.77850328 -22.27984841 179.37178921 -20.734375 182.96484375 C-20.34097931 183.87706696 -19.94758362 184.78929016 -19.54226685 185.72915649 C-16.85698723 191.96663759 -14.22865359 198.22549077 -11.640625 204.50390625 C-11.29846954 205.33282883 -10.95631409 206.1617514 -10.60379028 207.01579285 C-9.28760796 210.20703953 -7.97259903 213.39870925 -6.66766357 216.59457397 C-5.77550441 218.77863126 -4.87660883 220.95980882 -3.9765625 223.140625 C-3.71788391 223.78048843 -3.45920532 224.42035187 -3.19268799 225.0796051 C-1.81063241 228.41236335 -0.31836569 231.22761026 2 234 C8.47788945 219.36678868 14.67718536 204.63230485 20.72143555 189.81591797 C23.53460886 182.92908695 26.38161364 176.06461261 29.375 169.25390625 C30.15242554 167.47173706 30.15242554 167.47173706 30.94555664 165.65356445 C31.91382009 163.4446689 32.89410222 161.24098823 33.88842773 159.04370117 C34.31583252 158.06506104 34.7432373 157.0864209 35.18359375 156.078125 C35.56056396 155.23668945 35.93753418 154.39525391 36.32592773 153.52832031 C37.94466045 147.45675349 34.8837953 141.84796758 32.52734375 136.34375 C32.17216171 135.49976151 31.81697968 134.65577301 31.45103455 133.78620911 C30.28589436 131.02154572 29.11174814 128.26080568 27.9375 125.5 C27.129109 123.58643967 26.32133582 121.67261822 25.51416016 119.75854492 C23.84884232 115.81207056 22.18000747 111.86711205 20.50830078 107.92333984 C18.07817573 102.18850821 15.66012844 96.44865177 13.24609375 90.70703125 C12.68754951 89.37869766 12.68754951 89.37869766 12.11772156 88.02352905 C11.39048957 86.29401196 10.66327062 84.56448939 9.93606567 82.83496094 C7.29444712 76.55506727 4.64695631 70.27764524 2 64 C1.67 64 1.34 64 1 64 Z M-169 135 C-167.10149025 140.95746581 -164.95463095 146.72801318 -162.48046875 152.46875 C-162.14502548 153.2552594 -161.80958221 154.0417688 -161.463974 154.85211182 C-160.37522347 157.40288001 -159.28153291 159.95149351 -158.1875 162.5 C-157.04363168 165.17320071 -155.90071377 167.84680641 -154.75787354 170.52044678 C-153.9827153 172.33366214 -153.2071193 174.14669041 -152.43109131 175.95953369 C-149.88744337 181.90594421 -147.37030362 187.86291566 -144.87109375 193.828125 C-144.23097749 195.35225632 -143.59076191 196.87634593 -142.95043945 198.40039062 C-142.04382698 200.55826429 -141.13884374 202.71673266 -140.23959351 204.87768555 C-139.4173071 206.85287709 -138.58829235 208.82511741 -137.7578125 210.796875 C-137.06389404 212.45734863 -137.06389404 212.45734863 -136.35595703 214.15136719 C-133.96026924 219.18429573 -132.02239445 221.35201904 -126.74780273 223.31494141 C-125.6707457 223.72281891 -124.59368866 224.13069641 -123.48399353 224.55093384 C-122.3123616 224.9801413 -121.14072968 225.40934875 -119.93359375 225.8515625 C-118.7121315 226.31049896 -117.49066925 226.76943542 -116.23219299 227.24227905 C-112.96647458 228.469283 -109.69541048 229.68135013 -106.4229126 230.89013672 C-103.19750815 232.08395975 -99.97674356 233.29013957 -96.75585938 234.49609375 C-92.94358916 235.92307795 -89.13088084 237.34878001 -85.31503296 238.76617432 C-78.99438489 241.11601079 -72.68706725 243.49469806 -66.40283203 245.94042969 C-65.20320328 246.40661713 -64.00357452 246.87280457 -62.76759338 247.3531189 C-60.49657219 248.23860073 -58.22722559 249.12839314 -55.95982361 250.02310181 C-54.95351395 250.41557098 -53.94720428 250.80804016 -52.91040039 251.21240234 C-52.03057999 251.55894867 -51.15075958 251.905495 -50.24427795 252.26254272 C-47.91870987 253.15608651 -47.91870987 253.15608651 -45 253 C-47.07013212 246.41578814 -49.55318736 240.09080837 -52.28125 233.75390625 C-52.69152939 232.79261307 -53.10180878 231.83131989 -53.52452087 230.84089661 C-54.84607661 227.74654159 -56.17266356 224.65437931 -57.5 221.5625 C-59.31484875 217.32727073 -61.12829838 213.09144354 -62.94140625 208.85546875 C-63.38396255 207.822547 -63.82651886 206.78962524 -64.28248596 205.72540283 C-66.76001909 199.93379405 -69.20313876 194.13037885 -71.58984375 188.30078125 C-72.08484375 187.09929443 -72.57984375 185.89780762 -73.08984375 184.65991211 C-73.9580142 182.54374665 -74.81683799 180.42371031 -75.6640625 178.29907227 C-76.04175781 177.38311279 -76.41945313 176.46715332 -76.80859375 175.5234375 C-77.11595459 174.75950684 -77.42331543 173.99557617 -77.73999023 173.20849609 C-81.69323928 166.27939498 -87.40889174 164.3125179 -94.5546875 161.77734375 C-95.59702545 161.39464325 -96.6393634 161.01194275 -97.71328735 160.61764526 C-101.0960741 159.37832584 -104.48536118 158.1579383 -107.875 156.9375 C-111.35404755 155.66850365 -114.83134654 154.39479891 -118.30853271 153.12071228 C-120.6157763 152.27559882 -122.92359667 151.43205836 -125.23199463 150.59010315 C-135.35922872 146.8909745 -145.41608202 143.02467901 -155.43548584 139.04342651 C-157.1951156 138.34427993 -158.95686866 137.65048419 -160.71875 136.95703125 C-161.67716797 136.57522705 -162.63558594 136.19342285 -163.62304688 135.80004883 C-166.05587988 134.84049962 -166.05587988 134.84049962 -169 135 Z M164 134 C162.26536035 134.67693255 160.53072338 135.35387197 158.7960968 136.03083801 C157.21401578 136.64820381 155.63189126 137.26545813 154.04972839 137.88261414 C149.54419235 139.64029689 145.03948063 141.40004783 140.53613281 143.16333008 C131.77080799 146.59302399 123.00166026 150.00986415 114.20335388 153.35421753 C110.45088809 154.78136646 106.70212422 156.21809785 102.95358276 157.65551758 C101.15863759 158.34066467 99.36186648 159.02104816 97.56326294 159.6965332 C95.04259768 160.64370827 92.52872155 161.60717408 90.015625 162.57421875 C89.27467087 162.84763596 88.53371674 163.12105316 87.77030945 163.40275574 C81.59713509 165.80973794 77.78961282 168.92356155 75.00219727 175.06713867 C74.34394884 176.67883965 73.69946258 178.29620714 73.06640625 179.91796875 C72.71141556 180.79641449 72.35642487 181.67486023 71.99067688 182.57992554 C70.83601761 185.444488 69.69918603 188.31576398 68.5625 191.1875 C67.76902433 193.16644933 66.9742542 195.14488011 66.17822266 197.12280273 C64.96674063 200.13417858 63.75645034 203.14598691 62.5512085 206.15986633 C59.98236631 212.58187397 57.36842028 218.98300172 54.70703125 225.3671875 C54.37749954 226.15895889 54.04796783 226.95073029 53.70845032 227.76649475 C52.46055492 230.76329209 51.21192948 233.7597496 49.95559692 236.75302124 C49.10891799 238.77222565 48.2686503 240.79398641 47.4296875 242.81640625 C46.95772949 243.94506104 46.48577148 245.07371582 45.99951172 246.23657227 C44.82993587 248.98041757 44.82993587 248.98041757 45 252 C50.30753763 251.36810001 54.81572123 249.66528068 59.7265625 247.67578125 C60.57579285 247.33787064 61.42502319 246.99996002 62.29998779 246.65180969 C65.07762306 245.54515809 67.85165769 244.42986353 70.625 243.3125 C74.50406882 241.75105205 78.38408714 240.19201961 82.265625 238.63671875 C83.24506073 238.24391724 84.22449646 237.85111572 85.23361206 237.44641113 C91.66976414 234.88190465 98.14599644 232.46992924 104.671875 230.14453125 C107.12667449 229.25326748 109.58042131 228.35916516 112.03387451 227.46420288 C113.58092086 226.90964664 115.13309172 226.36916178 116.69024658 225.84365845 C118.85761553 225.11107845 121.00211446 224.33082739 123.1484375 223.5390625 C124.35677246 223.11834473 125.56510742 222.69762695 126.81005859 222.26416016 C131.62112375 218.84935698 132.93171537 214.39095522 135 209 C135.74575762 207.21028665 136.49400801 205.42160977 137.24487305 203.6340332 C138.00269592 201.77384706 138.75822717 199.91272604 139.51171875 198.05078125 C139.92484818 197.03565964 140.3379776 196.02053802 140.7636261 194.97465515 C142.07369643 191.75479066 143.38080646 188.53373616 144.6875 185.3125 C145.97118672 182.15158875 147.25556363 178.99096141 148.54104614 175.83078003 C149.39409516 173.73334701 150.24605065 171.63546891 151.09689331 169.53713989 C153.32620316 164.05263038 155.59078457 158.58589708 157.90869141 153.13818359 C158.61189262 151.47882027 158.61189262 151.47882027 159.32929993 149.78593445 C160.23176758 147.66166566 161.1407045 145.54013093 162.05680847 143.42170715 C162.45805435 142.47583237 162.85930023 141.52995758 163.27270508 140.55541992 C163.63125076 139.72153244 163.98979645 138.88764496 164.35920715 138.02848816 C165.27081884 135.96174994 165.27081884 135.96174994 164 134 Z " fill="#FEFEFE" transform="translate(323,86)"/>
<path d="M0 0 C7.17754391 2.30011063 14.1391996 4.98747951 21.125 7.8125 C22.39692611 8.32437398 23.66898635 8.83591476 24.94116211 9.34716797 C27.09931678 10.21451894 29.25737701 11.08209942 31.41508484 11.95056152 C41.60611188 16.05184365 51.8080955 20.12576229 62.00845337 24.20376587 C65.57060718 25.628242 69.13240474 27.05360529 72.6940918 28.47924805 C83.14273261 32.66113707 93.59217829 36.84084688 104.05012512 40.99942017 C108.20332555 42.65104296 112.35557881 44.30503948 116.50778198 45.95916748 C118.44080915 46.72838347 120.37433209 47.49635489 122.30838013 48.26300049 C124.97637398 49.32064429 127.64264203 50.3825338 130.30859375 51.4453125 C131.0769455 51.74852417 131.84529724 52.05173584 132.63693237 52.36413574 C134.07607784 52.93967398 135.50926548 53.53039423 136.93527222 54.13775635 C138.31752395 54.7149936 139.72103733 55.24361189 141.14016724 55.7230835 C145.70821759 57.49647636 147.580226 59.41314388 149.64697266 63.87548828 C150.45391696 65.90816439 151.23696065 67.95043853 152 70 C152.90283135 72.21053832 153.80839004 74.41996421 154.71630859 76.62841797 C155.69632495 79.08200102 156.67359803 81.53655513 157.6484375 83.9921875 C158.18317678 85.33329739 158.71817666 86.6743034 159.25341797 88.01521301 C160.38120143 90.84180298 161.50748774 93.66898244 162.63250732 96.49667358 C165.27059785 103.12701969 167.91661555 109.75420319 170.56224442 116.38154411 C171.14558885 117.84292815 171.72883831 119.3043501 172.31199265 120.76581001 C176.96287096 132.42139465 181.6468474 144.06301843 186.375 155.6875 C186.95311519 157.1102411 187.53116015 158.53301074 188.10913086 159.95581055 C188.38713028 160.64015671 188.6651297 161.32450287 188.95155334 162.02958679 C189.3603196 163.03587883 189.3603196 163.03587883 189.77734375 164.0625 C190.04248276 164.71511307 190.30762177 165.36772614 190.58079529 166.04011536 C193.43915542 173.07755514 196.29001513 180.11797858 199.12359619 187.16543579 C199.65909579 188.49583204 200.19580601 189.82574174 200.73382568 191.15512085 C201.45992174 192.94975595 202.18127065 194.74630957 202.90234375 196.54296875 C203.30960693 197.55383545 203.71687012 198.56470215 204.13647461 199.60620117 C205 202 205 202 205 204 C205.66 204 206.32 204 207 204 C207.36738281 202.82695313 207.73476563 201.65390625 208.11328125 200.4453125 C210.4491939 193.44981871 213.35549314 186.67983477 216.1875 179.875 C217.13021191 177.59984943 218.07181012 175.32423974 219.01341248 173.04862976 C219.67105998 171.45954136 220.32907547 169.87060521 220.98744202 168.28181458 C224.28800986 160.31480384 227.55597529 152.33455027 230.82312012 144.35379028 C235.35343963 133.28972155 239.89798191 122.23169404 244.4765625 111.1875 C245.03288612 109.84495148 245.03288612 109.84495148 245.60044861 108.47528076 C247.4330985 104.0552502 249.27090616 99.63747729 251.1184082 95.22363281 C254.10523735 88.07642537 257.0665562 80.93786301 259.75390625 73.671875 C260.3408728 72.11641968 260.3408728 72.11641968 260.93969727 70.52954102 C261.61286525 68.72517801 262.26102447 66.91112887 262.87475586 65.08569336 C264.3871844 61.06984754 265.66507534 58.74116995 269.625 56.8984375 C271.40974562 56.24636069 273.20283873 55.61703522 275 55 C276.96972132 54.23554055 278.93062703 53.45031185 280.89260864 52.66621399 C284.91801613 51.06341934 288.96077245 49.50505745 293 47.9375 C294.81402942 47.23161123 296.62799261 46.52555227 298.44189453 45.81933594 C308.22582102 42.01202044 318.01495939 38.21814897 327.8046875 34.42578125 C328.79252731 34.04307068 329.78036713 33.66036011 330.79814148 33.26605225 C338.92739911 30.11672418 338.92739911 30.11672418 342.91238403 28.57452393 C355.08091561 23.86505855 367.2381194 19.1282364 379.37890625 14.34765625 C380.56037231 13.88275787 381.74183838 13.4178595 382.95910645 12.93887329 C388.70156235 10.67887674 394.44251238 8.41517642 400.18115234 6.14550781 C402.24441635 5.3325559 404.30772759 4.51972384 406.37109375 3.70703125 C407.79549522 3.14134178 407.79549522 3.14134178 409.24867249 2.56422424 C410.54568336 2.05447304 410.54568336 2.05447304 411.86889648 1.53442383 C412.62267075 1.23643387 413.37644501 0.93844391 414.15306091 0.63142395 C416 0 416 0 418 0 C417.38695745 5.33225363 415.62517657 9.74073616 413.52734375 14.62109375 C413.17293213 15.46048996 412.81852051 16.29988617 412.45336914 17.16471863 C411.68766189 18.97656843 410.91907644 20.78720403 410.1479187 22.59674072 C408.0751669 27.46132923 406.02379878 32.33494455 403.96875 37.20703125 C403.33899513 38.69743927 403.33899513 38.69743927 402.69651794 40.21795654 C398.71038477 49.65999722 394.81351964 59.1373438 390.9375 68.625 C389.63347333 71.81277067 388.32862082 75.00020274 387.0234375 78.1875 C386.69882538 78.98028854 386.37421326 79.77307709 386.0397644 80.58988953 C383.54938615 86.66817279 381.04706861 92.74147087 378.5390625 98.8125 C378.16800888 99.71216492 377.79695526 100.61182983 377.41465759 101.53875732 C375.57661202 105.98921803 373.72444017 110.43277329 371.84106445 114.86425781 C367.45042251 125.2094763 367.45042251 125.2094763 363.87890625 135.859375 C361.51361537 143.64052498 359.33724454 149.11138724 351.93359375 153.12109375 C346.8554091 155.42898979 341.64236267 157.22991475 336.33222961 158.92741394 C328.37370772 161.47331479 320.61861738 164.52976127 312.82855225 167.5446167 C309.2543012 168.92216251 305.67194081 170.27790665 302.08950806 171.63400269 C289.50517139 176.39945879 276.96648618 181.27866644 264.4375 186.1875 C263.47572845 186.56373505 262.51395691 186.93997009 261.52304077 187.3276062 C251.65654072 191.18737827 241.80058526 195.07031261 231.97265625 199.02734375 C229.69529119 199.94011737 227.41765174 200.8522027 225.1399231 201.7640686 C223.06327323 202.59954399 220.99146928 203.44626638 218.91967773 204.29370117 C217.67583631 204.79269826 216.43179002 205.29118509 215.1875 205.7890625 C214.12917969 206.21912598 213.07085937 206.64918945 211.98046875 207.09228516 C204.83399487 209.26877515 199.66266616 206.99428307 193.05200195 204.27490234 C192.06371399 203.87798691 191.07542603 203.48107147 190.05718994 203.0721283 C186.78017727 201.7531814 183.50933124 200.41959588 180.23828125 199.0859375 C177.93210932 198.15448398 175.62555835 197.22396843 173.31864929 196.29434204 C167.83963399 194.08388238 162.36438081 191.86428282 156.89091319 189.64013445 C150.20357562 186.9232706 143.51104889 184.21927464 136.81835938 181.515625 C129.75224065 178.66075485 122.68677468 175.8043365 115.62503052 172.93865967 C105.37865226 168.7818019 95.12825859 164.63858919 84.84130859 160.58300781 C84.00255157 160.25147768 83.16379454 159.91994755 82.29962063 159.57837105 C78.5007197 158.07694304 74.69950425 156.58229003 70.89216614 155.10238647 C69.59619028 154.5915451 68.30033877 154.08038807 67.00463867 153.56884766 C65.35681648 152.92624496 65.35681648 152.92624496 63.67570496 152.2706604 C59.17399562 150.13285228 57.69405541 147.79609949 55.83789062 143.25073242 C55.41769653 142.23062576 54.99750244 141.2105191 54.5645752 140.15950012 C54.09982788 139.00729477 53.63508057 137.85508942 53.15625 136.66796875 C52.64199807 135.40779574 52.12728953 134.14780899 51.61218262 132.88798523 C49.72702377 128.2644554 47.8629368 123.63251949 46 119 C45.624198 118.06619759 45.248396 117.13239517 44.86120605 116.17029572 C38.52804251 100.42976837 32.23061738 84.67500173 25.9395752 68.91760254 C23.52610486 62.87359174 21.1106208 56.83038586 18.6953125 50.78710938 C14.80545746 41.05377118 10.91675191 31.31997481 7.02975464 21.585495 C6.68820343 20.73017181 6.34665222 19.87484863 5.99475098 18.99360657 C5.66836136 18.17119791 5.34197174 17.34878925 5.00569153 16.50145912 C4.3033759 14.75458765 3.58535624 13.01398413 2.85551453 11.27843285 C2.48823746 10.39632952 2.12096039 9.51422619 1.74255371 8.60539246 C1.40847252 7.81673892 1.07439133 7.02808538 0.73018646 6.21553326 C0 4 0 4 0 0 Z M44 45 C45.90090269 50.88875525 47.98167282 56.66228039 50.30078125 62.3984375 C50.61393784 63.17952377 50.92709442 63.96061005 51.2497406 64.7653656 C52.26787279 67.30304112 53.28982448 69.83915231 54.3125 72.375 C55.75205442 75.94891622 57.19071564 79.52319101 58.62890625 83.09765625 C58.99277435 84.00124374 59.35664246 84.90483124 59.73153687 85.83580017 C62.20100004 91.97906641 64.62487439 98.13886545 67.02734375 104.30859375 C67.96763172 106.70952338 68.90902059 109.11001771 69.85092163 111.51031494 C70.44749745 113.0379103 71.03984802 114.56716289 71.62783813 116.0980835 C72.44415546 118.22215992 73.27508467 120.33996278 74.109375 122.45703125 C74.57311523 123.65303955 75.03685547 124.84904785 75.51464844 126.08129883 C78.28719994 131.52933518 83.10795324 133.04516315 88.56665039 135.20214844 C89.70146599 135.65875603 89.70146599 135.65875603 90.85920715 136.12458801 C93.35288115 137.12583208 95.85003781 138.11801527 98.34765625 139.109375 C100.08363508 139.80225162 101.81950908 140.49539092 103.55528259 141.18878174 C107.18926067 142.63865845 110.8250881 144.08377721 114.4621582 145.52587891 C119.12944806 147.37716283 123.79094171 149.24258144 128.45104313 151.11187363 C132.03170982 152.54590347 135.61579089 153.97123299 139.20092583 155.3940506 C140.92174799 156.07847216 142.6413771 156.76590116 144.35978889 157.45635223 C146.75729759 158.41842957 149.1592487 159.36842712 151.56274414 160.31542969 C152.27503174 160.60418472 152.98731934 160.89293976 153.72119141 161.19044495 C157.77890131 162.83688068 157.77890131 162.83688068 162 162 C161.58041016 160.95102539 161.58041016 160.95102539 161.15234375 159.88085938 C160.75144531 158.87861328 160.35054688 157.87636719 159.9375 156.84375 C159.24829468 155.12079712 159.24829468 155.12079712 158.54516602 153.36303711 C157.49863173 150.7467224 156.45226656 148.13034014 155.40600586 145.51391602 C152.56757159 138.41619179 149.72766861 131.3190616 146.88418579 124.22335815 C145.4603161 120.66993056 144.03713738 117.11622641 142.61401367 113.5625 C141.92032094 111.83076463 141.22631728 110.09915379 140.53198242 108.36767578 C139.86524298 106.70493489 139.19932153 105.04186572 138.53427124 103.37844849 C137.895813 101.7862989 137.25317923 100.19581652 136.60610962 98.60714722 C135.20083728 95.13572021 133.86624601 91.68793777 132.76904297 88.10595703 C132.40053223 86.95853027 132.03202148 85.81110352 131.65234375 84.62890625 C131.37253662 83.65123291 131.09272949 82.67355957 130.80444336 81.66625977 C125.43561408 73.73323519 110.84901246 70.61648934 102.125 67.16796875 C100.50729092 66.52521634 98.88969847 65.88217031 97.2722168 65.23884583 C93.90475849 63.9006275 90.53610089 62.56548973 87.16650391 61.23266602 C82.84222224 59.52200621 78.5207983 57.80425715 74.20019531 56.08433056 C70.87103972 54.75982823 67.54056356 53.43867448 64.20965576 52.11858559 C62.614422 51.48597919 61.01957139 50.85240574 59.42510986 50.21785545 C57.20789769 49.33612793 54.98898389 48.45883341 52.76953125 47.58276367 C52.10982834 47.31944748 51.45012543 47.05613129 50.77043152 46.78483582 C47.48466564 45.43742928 47.48466564 45.43742928 44 45 Z M366.00805664 46.31665039 C365.20229187 46.63240021 364.3965271 46.94815002 363.56634521 47.27346802 C362.25153168 47.80519119 362.25153168 47.80519119 360.91015625 48.34765625 C359.52972137 48.89267288 359.52972137 48.89267288 358.12139893 49.44869995 C355.09818702 50.64448851 352.08036716 51.85329312 349.0625 53.0625 C346.98563053 53.88770762 344.90839792 54.71200186 342.83081055 55.53540039 C339.66226663 56.79122264 336.4939907 58.04767002 333.32710266 59.30766296 C326.58420996 61.9881379 319.82507112 64.62111859 313.046875 67.2109375 C312.20938217 67.53188889 311.37188934 67.85284027 310.50901794 68.18351746 C304.08420316 70.64566551 304.08420316 70.64566551 300.98831177 71.81643677 C298.83968366 72.62966139 296.69495167 73.45245226 294.55078125 74.27734375 C293.35106689 74.73359131 292.15135254 75.18983887 290.9152832 75.65991211 C286.84523422 77.53081897 284.96153652 79.56217333 283.26098633 83.66894531 C282.95193359 84.40509567 282.64288086 85.14124603 282.32446289 85.89970398 C281.99696045 86.70108292 281.66945801 87.50246185 281.33203125 88.328125 C280.97963379 89.17353348 280.62723633 90.01894196 280.26416016 90.88996887 C279.10613046 93.67361024 277.95901185 96.46159705 276.8125 99.25 C276.01505883 101.17655454 275.21712047 103.10290335 274.41870117 105.02905273 C272.76835878 109.01420417 271.1228822 113.00132078 269.48046875 116.98974609 C267.46240228 121.88670557 265.42772366 126.77651394 263.38545227 131.66342163 C261.87964152 135.26900936 260.38056573 138.87736979 258.88314819 142.4864502 C258.16971688 144.20301274 257.45391777 145.91859311 256.73574829 147.63317871 C255.73958332 150.01417239 254.75329734 152.39901835 253.76953125 154.78515625 C253.47151611 155.49146683 253.17350098 156.1977774 252.86645508 156.92549133 C252.18459893 158.59382192 251.58366517 160.2948344 251 162 C251.33 162.66 251.66 163.32 252 164 C253.0115918 163.60433838 254.02318359 163.20867676 255.06542969 162.80102539 C257.31668727 161.92055123 259.5681312 161.0405618 261.81994629 160.16151428 C266.30004964 158.41248431 270.77812368 156.65853862 275.25292969 154.89599609 C284.22452974 151.37050611 293.20592332 147.89583682 302.27093506 144.61662292 C306.29739612 143.15857535 310.31436241 141.67527034 314.33117676 140.19088745 C316.26752283 139.48377818 318.2085632 138.78938604 320.1541748 138.10818481 C331.88110649 134.65883158 331.88110649 134.65883158 340.2734375 126.609375 C340.89007715 124.75273808 341.45975991 122.88028874 342 121 C342.800694 118.98223782 343.65359437 116.99053674 344.50769043 114.99482727 C345.48635418 112.69816638 346.43189931 110.39027136 347.36914062 108.07641602 C349.44371684 102.95517317 351.52921418 97.83845029 353.6171875 92.72265625 C353.97629211 91.84183884 354.33539673 90.96102142 354.7053833 90.05351257 C358.58899787 80.53653434 362.53967582 71.04775955 366.5 61.5625 C366.83086609 60.76966614 367.16173218 59.97683228 367.50262451 59.15997314 C369.33359004 54.77269056 371.16601279 50.38602028 373 46 C369.62366362 44.87455454 369.15781391 45.06129811 366.00805664 46.31665039 Z " fill="#FEFEFE" transform="translate(117,317)"/>
</svg>
